<svg id="Add_User-pana" data-name="Add User-pana" xmlns="http://www.w3.org/2000/svg" width="221.554" height="160.706" viewBox="0 0 221.554 160.706">
  <g id="freepik--Plants--inject-51" transform="matrix(0.998, -0.07, 0.07, 0.998, 0, 89.998)">
    <path id="Path_7308" data-name="Path 7308" d="M.819.942a8.689,8.689,0,0,1,6.8-.457,15.351,15.351,0,0,1,5.859,3.744c3.246,3.14,5.273,7.927,6.445,12.3C15,17.517,9.907,14.693,7.417,13.1,3.473,10.58-2.122,3.637.825.954" transform="translate(0 9.146)" fill="#7c7c7c"/>
    <path id="Path_7309" data-name="Path 7309" d="M4.111,15.008a7.418,7.418,0,0,1-4.1-6.2A9.861,9.861,0,0,1,2.64,1.661,4.166,4.166,0,0,1,5.722,0,3.193,3.193,0,0,1,8.306,1.925a6.4,6.4,0,0,1,.4,3.322c-.369,3.849-1.43,7.505-4.57,9.761" transform="translate(24.357 11.69)" fill="#908c8c"/>
    <path id="Path_7310" data-name="Path 7310" d="M8.5,21a4.688,4.688,0,0,1-.644-.668l-1.7-1.881a26.3,26.3,0,0,1-4.746-6.9A16,16,0,0,1,.087,3.322,10.546,10.546,0,0,1,.673.85,6.736,6.736,0,0,1,.949.211c.064-.141.105-.217.117-.211A17.05,17.05,0,0,0,.3,3.352a16.44,16.44,0,0,0,1.418,8.091,27.983,27.983,0,0,0,4.617,6.878c.686.82,1.248,1.482,1.617,1.951A4.828,4.828,0,0,1,8.5,21Z" transform="translate(27.918 17.933)" fill="#263238"/>
    <path id="Path_7311" data-name="Path 7311" d="M0,0A2.256,2.256,0,0,1,.352.211l.955.65c.832.586,2.021,1.412,3.48,2.461,2.93,2.1,6.919,5.062,11.255,8.431s8.2,6.509,10.962,8.818c1.377,1.172,2.484,2.1,3.246,2.76l.867.768c.2.182.3.275.287.287a2.155,2.155,0,0,1-.328-.234l-.908-.721-3.31-2.678c-2.836-2.273-6.691-5.373-11.038-8.718S7.511,5.683,4.629,3.533L1.213.99.287.287A1.757,1.757,0,0,1,0,0Z" transform="translate(5.553 14.997)" fill="#263238"/>
    <path id="Path_7312" data-name="Path 7312" d="M18.328,2.041A17.384,17.384,0,0,0,2.462,1.8C1.214,2.428-.1,3.494.007,4.889S1.6,7.133,2.936,7.531a14.829,14.829,0,0,0,15.62-5.2" transform="translate(8.318 31.512)" fill="#5b5e60"/>
    <path id="Path_7313" data-name="Path 7313" d="M0,2.219A4.1,4.1,0,0,1,.768,1.8,8.208,8.208,0,0,1,1.7,1.369,11.982,11.982,0,0,1,2.982.9,14.91,14.91,0,0,1,4.57.455,18.106,18.106,0,0,1,6.439.121a19.524,19.524,0,0,1,4.347,0,18.82,18.82,0,0,1,4.224,1.031,16.546,16.546,0,0,1,1.758.773,16,16,0,0,1,1.441.82c.439.252.785.551,1.113.779a8.28,8.28,0,0,1,.8.65,4.593,4.593,0,0,1,.633.586c-.053.059-.961-.8-2.666-1.84a15.383,15.383,0,0,0-1.435-.773,16.909,16.909,0,0,0-1.723-.738A19.337,19.337,0,0,0,10.775.426,20.07,20.07,0,0,0,6.5.426a18.1,18.1,0,0,0-1.846.3c-.586.1-1.1.264-1.582.393C1.137,1.7.029,2.283,0,2.219Z" transform="translate(14.529 33.203)" fill="#263238"/>
    <path id="Path_7314" data-name="Path 7314" d="M6.356,56.532C2.255,53.9.778,50.515.134,45.681A17.109,17.109,0,0,1,4.346,32.153c2.73-3.012,6.562-5.068,8.548-8.619,2.109-3.785,1.84-8.789,4.851-11.923,2.074-2.139,5.2-2.806,7.751-4.33a52.051,52.051,0,0,0,5.672-4.558C33.061,1.205,35.335-.084,37.76,0c3.662.135,6.644,3.609,6.955,7.259s-1.588,7.224-4.289,9.7c-1.957,1.793-4.4,3.2-5.636,5.56-2.344,4.412.51,10.318-2,14.648-1.834,3.146-6.2,4.787-6.679,8.4a24.957,24.957,0,0,0,.293,4c.129,4.189-3.656,7.71-7.751,8.613s-8.349-.229-12.3-1.641" transform="translate(172.39 0)" fill="#7d5a91"/>
    <path id="Path_7315" data-name="Path 7315" d="M23.66,0a3.216,3.216,0,0,1-.4.492l-1.236,1.33c-.545.586-1.213,1.271-1.933,2.127s-1.611,1.758-2.467,2.894-1.863,2.291-2.812,3.65c-.475.68-1.008,1.348-1.488,2.092l-1.494,2.273A80.753,80.753,0,0,0,6.153,25.539,77.236,77.236,0,0,0,2.316,37.006c-.416,1.816-.82,3.515-1.055,5.179S.792,45.343.634,46.743s-.211,2.672-.3,3.791S.23,52.614.218,53.4.189,54.753.177,55.221a2.971,2.971,0,0,1-.053.633,2.8,2.8,0,0,1-.047-.633c0-.469-.029-1.072-.053-1.822s-.041-1.758,0-2.877.059-2.408.229-3.814.275-2.93.586-4.593.586-3.387,1.014-5.215A75.448,75.448,0,0,1,5.69,25.34a77.874,77.874,0,0,1,5.748-10.734l1.517-2.273c.492-.738,1.031-1.412,1.517-2.086.973-1.353,1.974-2.537,2.877-3.627S19.107,4.6,19.875,3.762s1.435-1.523,2-2.074S22.845.744,23.185.422A3.153,3.153,0,0,1,23.66,0Z" transform="translate(179.149 15.027)" fill="#263238"/>
  </g>
  <g id="freepik--Character--inject-51" transform="translate(31.8)">
    <circle id="Ellipse_1184" data-name="Ellipse 1184" cx="50.859" cy="50.859" r="50.859" transform="translate(0 81.617) rotate(-45)" fill="#e0e0e0"/>
    <path id="Path_7316" data-name="Path 7316" d="M206.232,45.466a7.294,7.294,0,0,0-.723,8c.636,1.142,1.6,2.169,1.75,3.463.239,2.1-1.8,4-1.446,6.094.224,1.446,1.446,2.436,2.111,3.716a4.894,4.894,0,0,1-.557,5.212c-.925,1.128-2.378,1.844-2.979,3.181-.448.983-.34,2.169-.723,3.159a4.909,4.909,0,0,1-3.875,2.892,14.539,14.539,0,0,1-5.061-.282l.369-1.829a3.557,3.557,0,0,1-2.892,1.627,10.367,10.367,0,0,1-3.412-.506c-.687-3.1-1.359-6.376-.39-9.4.882-2.718,2.964-4.844,4.7-7.114a32.1,32.1,0,0,0,4.576-8.285,46.348,46.348,0,0,1,2.48-6.362,7.889,7.889,0,0,1,5.118-4.2" transform="translate(-105.169 -32.591)" fill="#263238"/>
    <path id="Path_7317" data-name="Path 7317" d="M246.183,98.589l-10.063.723-.1-2.588a5.682,5.682,0,0,1,.868-3.658,2.111,2.111,0,0,0,.239-.614c.072-.766-1.056-4.612-1.446-6.022-.492-1.692.47-2.588.846-1.894.68,1.265,2.48,6.694,3.044,7.229s.239-2.306.239-2.306c-.882-5.979-1.265-6.846-.2-7.07,1.222-.26,2.566,8.639,2.566,8.639s-.181-1.243.774-1.5,1.4.969,1.4.969c-.123-.629.781-.723.781-.723,2.256.311,1.084,8.892,1.084,8.892l-10.063.723-4.822,33.653-5.147-7.887-13.432,9.586L224.849,149.2a10.743,10.743,0,0,0,8.625,3.824h0a10.714,10.714,0,0,0,10.309-10.121Z" transform="translate(-112.046 -42.995)" fill="#fed2a4"/>
    <path id="Path_7318" data-name="Path 7318" d="M247.65,102.661c-.043-.051.492-.521,1.207-1.4a13.482,13.482,0,0,0,1.128-1.634,11.719,11.719,0,0,0,.549-1.041,2.4,2.4,0,0,0,.347-1.1.47.47,0,0,0-.289-.419.911.911,0,0,0-.578.094,6.507,6.507,0,0,0-1.121.672,6.26,6.26,0,0,0-1.446,1.54l-.116.166-.087-.174a3.766,3.766,0,0,0-.8-.99,1.866,1.866,0,0,1,1.019.911h-.2a5.827,5.827,0,0,1,1.446-1.677,6.3,6.3,0,0,1,1.178-.723,1.236,1.236,0,0,1,.839-.116.839.839,0,0,1,.557.723,2.668,2.668,0,0,1-.39,1.316,11.025,11.025,0,0,1-.586,1.048,11.287,11.287,0,0,1-1.222,1.634,5.719,5.719,0,0,1-1.439,1.171Z" transform="translate(-121.385 -46.974)" fill="#d1734a"/>
    <path id="Path_7319" data-name="Path 7319" d="M253.425,94.864a9.357,9.357,0,0,1,0,1.851c0,.607-.065,1.28-.108,2a7.579,7.579,0,0,0,0,1.142c0,.354.34.658.593.513a1.675,1.675,0,0,0,.506-.962c.108-.383.2-.766.275-1.135.159-.723.275-1.4.383-1.959a7.909,7.909,0,0,1,.427-1.8,10.483,10.483,0,0,1-.166,1.843c-.072.564-.159,1.236-.3,1.988-.065.369-.152.759-.26,1.164a1.807,1.807,0,0,1-.723,1.2.723.723,0,0,1-.8-.137,1.027,1.027,0,0,1-.318-.665,6.605,6.605,0,0,1,.043-1.215q.108-1.07.2-2a8.907,8.907,0,0,1,.26-1.829Z" transform="translate(-123.177 -46.355)" fill="#d1734a"/>
    <path id="Path_7320" data-name="Path 7320" d="M255.886,97.76c.058,0-.087.419-.043,1.07a2.046,2.046,0,0,0,.311,1.012c.123.123.21.13.325,0a3.764,3.764,0,0,0,.333-.622,21.547,21.547,0,0,0,1.077-3.521,6.723,6.723,0,0,1-.723,3.68,4.2,4.2,0,0,1-.383.723.578.578,0,0,1-.448.224.571.571,0,0,1-.427-.217,1.4,1.4,0,0,1-.268-.658,2.725,2.725,0,0,1-.051-.578C255.568,98.122,255.821,97.739,255.886,97.76Z" transform="translate(-123.917 -46.685)" fill="#d1734a"/>
    <path id="Path_7321" data-name="Path 7321" d="M171.345,160.8l.94,14.632C143.663,186.4,122.4,168.2,122.4,168.2l4.28-13.092.723-22.859-5.494,6.094-2.6-2.169-13.092-10.9-2.812-2.35,13.613-14.365c17.213-18.529,30.609-12.868,30.609-12.868l20.127,1.887s13.924,1.974,20.662,14.177c5.487,9.933,11.459,20.452,11.459,20.452l-17.249,12.29-5.487-10.078Z" transform="translate(-81.755 -46.456)" fill="#c38798"/>
    <path id="Path_7322" data-name="Path 7322" d="M102.6,139.422c0,.86,0,1.713.051,2.581a50.606,50.606,0,0,0,1.374,10.071v.094c.1.412.217.817.333,1.222.448,1.59,1.041,2.993,1.6,4.533.072.2.145.383.224.578,1.822-.477,6.658-5.061,12.565-11.039L105.644,136.53C103.959,138.366,103.164,139.2,102.6,139.422Z" transform="translate(-81.53 -57.998)" fill="#fed2a4"/>
    <path id="Path_7323" data-name="Path 7323" d="M182.779,82.74c.723-4.988,1.54-10.222,1.54-10.222s6.572-.181,9.058-8.379c2.371-7.822,3.615-26.467,3.615-26.467h0a24.32,24.32,0,0,0-27.645,2.444h0l-5.061,40.593c-.586,4.706,3,8.964,8.054,9.557h0C177.436,90.859,182.135,87.49,182.779,82.74Z" transform="translate(-98.604 -29.72)" fill="#fed2a4"/>
    <path id="Path_7329" data-name="Path 7329" d="M187.844,85.36A21.522,21.522,0,0,1,177,80.82s1.93,6.131,10.425,6.506Z" transform="translate(-102.143 -42.563)" fill="#d1734a"/>
    <path id="Path_7330" data-name="Path 7330" d="M180.8,33.264a3.121,3.121,0,0,1-1.518,3.615,10.555,10.555,0,0,1-4.1,1.157,7.5,7.5,0,0,0-3.947,1.5c-1.966,1.786-1.446,4.338-3.434,6.658a4.28,4.28,0,0,1-4.171,1.75c-1.59-.224-3.651.145-4.453,1.981s.166,3.188,1.055,4.873.651,3.412.145,5.256c-.361,1.33-1.5,2.371-1.757,3.73-.4,2.169,1.446,4.583.2,6.362s-4.424.99-5.82,2.646c-.506.586-.8,1.446-1.54,1.677a2.169,2.169,0,0,1-1.345-.246l-6.506-2.754c.166-.672.34-1.352.513-2.024a4.338,4.338,0,0,1-6.969-1.055,19.52,19.52,0,0,0,3.759-2.841,6.572,6.572,0,0,0,1.916-4.171c.065-1.909-.969-3.839-.39-5.653.831-2.6,4.338-3.246,5.885-5.473,1.446-2.082.962-5.1,2.458-7.164,1.742-2.386,5.422-2.494,7.417-4.677,1.352-1.446,1.663-3.615,2.646-5.371a9.868,9.868,0,0,1,5.588-4.28,21.479,21.479,0,0,1,7.121-.831,11.018,11.018,0,0,1,5.234,1.048,4.366,4.366,0,0,1,2.386,4.432" transform="translate(-91.103 -27.901)" fill="#263238"/>
    <path id="Path_7331" data-name="Path 7331" d="M171.7,55.545a4.981,4.981,0,0,0-2.718-.2,3.5,3.5,0,0,0-2.227,1.518,3.7,3.7,0,0,0-.39,2.675,6.253,6.253,0,0,0,1.215,2.465,4.193,4.193,0,0,0,1.446,1.3,2.01,2.01,0,0,0,1.909,0" transform="translate(-99.17 -35.477)" fill="#fed2a4"/>
    <path id="Path_7332" data-name="Path 7332" d="M171.183,61.4c.1.051-.369.542-1.157.2a1.793,1.793,0,0,1-.889-.983,3.99,3.99,0,0,1-.239-1.554,2.364,2.364,0,0,1,.593-1.525,1.562,1.562,0,0,1,1.272-.528c.846.094,1.027.723.933.723a1.683,1.683,0,0,0-.933-.231,1.533,1.533,0,0,0-1.171,1.6c0,.94.21,1.829.672,2.111A1.856,1.856,0,0,0,171.183,61.4Z" transform="translate(-99.898 -35.964)" fill="#d1734a"/>
    <path id="Path_7333" data-name="Path 7333" d="M197.394,34.756a4.179,4.179,0,0,0,1.735,4.988c.94.542,2.1.723,2.892,1.446a4.605,4.605,0,0,1,1.215,2.935,10.6,10.6,0,0,0,.6,3.166,2.523,2.523,0,0,0,2.545,1.59l1.815-5.357c.665-1.966,1.337-4.07.86-6.1-.68-2.892-3.542-4.786-6.405-5.574a5.9,5.9,0,0,0-4.048.036,2.657,2.657,0,0,0-1.446,3.4" transform="translate(-107.666 -28.9)" fill="#263238"/>
    <path id="Path_7334" data-name="Path 7334" d="M149.3,73.9a2.616,2.616,0,0,0,.427-.455,3.268,3.268,0,0,0,.593-1.648,15.852,15.852,0,0,0-.159-2.834,4.634,4.634,0,0,1,.173-1.807,4.706,4.706,0,0,1,1.019-1.764c.947-1.077,2.27-1.916,3.412-3.065a4.916,4.916,0,0,0,1.309-2.075,6.073,6.073,0,0,0,.072-2.61c-.137-.911-.369-1.836-.484-2.812a6.427,6.427,0,0,1,.289-3.015,6.355,6.355,0,0,1,4.627-4.07c2.125-.47,4.338-.181,6.073-1.077a4.338,4.338,0,0,0,1.9-2.06,18.667,18.667,0,0,0,.918-2.66,9.969,9.969,0,0,1,1.063-2.538,4.4,4.4,0,0,1,2.01-1.67,10.577,10.577,0,0,1,4.583-.484,12.044,12.044,0,0,0,3.73-.217,5.494,5.494,0,0,0,2.451-1.3,3.029,3.029,0,0,0,.723-1.59c.072-.4.072-.622.094-.615a2.957,2.957,0,0,1,0,.629,3.007,3.007,0,0,1-.723,1.677,5.523,5.523,0,0,1-2.509,1.4,12,12,0,0,1-3.8.275,10.323,10.323,0,0,0-4.453.513,4.07,4.07,0,0,0-1.851,1.562,9.7,9.7,0,0,0-1.012,2.458,19.166,19.166,0,0,1-.925,2.718,5.328,5.328,0,0,1-.824,1.272,4.533,4.533,0,0,1-1.229.954c-1.923.962-4.128.658-6.167,1.121a6.015,6.015,0,0,0-4.323,3.832,6.08,6.08,0,0,0-.282,2.848c.108.947.333,1.872.47,2.805a6.311,6.311,0,0,1-.094,2.754A5.234,5.234,0,0,1,155,62.52c-1.193,1.178-2.516,2-3.441,3.022a4.338,4.338,0,0,0-1.178,3.383,14.712,14.712,0,0,1,.094,2.892,3.29,3.29,0,0,1-.672,1.684A1.714,1.714,0,0,1,149.3,73.9Z" transform="translate(-94.469 -29.46)" fill="#455a64"/>
    <path id="Path_7335" data-name="Path 7335" d="M201.377,78.1a4.212,4.212,0,0,0,.34-.383,2.683,2.683,0,0,0,.434-1.374c.058-.636-.108-1.446-.065-2.357a5.408,5.408,0,0,1,1.272-2.892,8.166,8.166,0,0,0,1.807-3.2c.239-1.3-.318-2.7-.593-4.215a5.14,5.14,0,0,1,.094-2.407,8.827,8.827,0,0,1,1.121-2.2c.463-.723.976-1.374,1.374-2.111a5.133,5.133,0,0,0,.723-2.386,4.338,4.338,0,0,0-.8-2.342,9.948,9.948,0,0,1-1.193-2.284,13.058,13.058,0,0,1,0-4.829,8.437,8.437,0,0,0-.043-2.169,4.208,4.208,0,0,0-.781-1.858,8.943,8.943,0,0,0-2.942-2.219,16.215,16.215,0,0,1-2.689-1.619,5.907,5.907,0,0,1-1.6-1.771,3.318,3.318,0,0,1-.427-1.446,1.793,1.793,0,0,1,.036-.521,4.418,4.418,0,0,0,.043.513,3.333,3.333,0,0,0,.477,1.374,5.993,5.993,0,0,0,1.576,1.677,16.765,16.765,0,0,0,2.682,1.554A9.023,9.023,0,0,1,205.3,40.9a4.454,4.454,0,0,1,.875,1.974,8.813,8.813,0,0,1,.065,2.27c-.1,1.525-.455,3.145,0,4.692a9.594,9.594,0,0,0,1.157,2.169,4.627,4.627,0,0,1,.86,2.538,5.473,5.473,0,0,1-.774,2.566c-.419.766-.933,1.446-1.388,2.169a8.387,8.387,0,0,0-1.1,2.125,4.714,4.714,0,0,0-.1,2.241c.246,1.446.831,2.892.557,4.338a5,5,0,0,1-.8,1.843,17.534,17.534,0,0,1-1.092,1.446A5.278,5.278,0,0,0,202.273,74c-.065.9.08,1.7,0,2.357a2.638,2.638,0,0,1-.521,1.4A1.1,1.1,0,0,1,201.377,78.1Z" transform="translate(-107.796 -29.458)" fill="#455a64"/>
    <path id="Path_7336" data-name="Path 7336" d="M139.09,70.124a6.85,6.85,0,0,1,.687.051,4.62,4.62,0,0,0,1.909-.369,5.465,5.465,0,0,0,2.4-1.909,7.663,7.663,0,0,0,1.294-3.832,41.83,41.83,0,0,0-.253-5.01,5.357,5.357,0,0,1,.615-2.783,6.709,6.709,0,0,1,2.284-1.981,4.909,4.909,0,0,0,2.1-2.1,9.4,9.4,0,0,0,.463-3.145,9.507,9.507,0,0,1,.651-3.362,4.728,4.728,0,0,1,.976-1.5,3.217,3.217,0,0,1,1.663-.774c1.2-.21,2.364-.087,3.485-.21a4.612,4.612,0,0,0,2.892-1.3,9.55,9.55,0,0,0,1.822-2.6c.484-.94.86-1.909,1.323-2.834a11.465,11.465,0,0,1,1.627-2.53,5.169,5.169,0,0,1,2.357-1.6,4.844,4.844,0,0,1,2.668,0,14.762,14.762,0,0,1,2.277.853,11.054,11.054,0,0,0,3.9,1.236,7.678,7.678,0,0,0,3.044-.47,8.675,8.675,0,0,0,2.306-1.294,3.2,3.2,0,0,1-.513.463,7.229,7.229,0,0,1-1.742.969,7.671,7.671,0,0,1-3.1.542,11.169,11.169,0,0,1-3.991-1.2,13.569,13.569,0,0,0-2.248-.817,4.525,4.525,0,0,0-2.5,0,4.923,4.923,0,0,0-2.2,1.525,11.4,11.4,0,0,0-1.562,2.472c-.875,1.793-1.554,3.933-3.2,5.545a5.2,5.2,0,0,1-1.446.983,5.538,5.538,0,0,1-1.7.427c-1.164.123-2.335,0-3.456.2a2.848,2.848,0,0,0-1.446.68,4.475,4.475,0,0,0-.9,1.374,9.47,9.47,0,0,0-.622,3.232,9.673,9.673,0,0,1-.5,3.268,5.22,5.22,0,0,1-2.241,2.248,6.463,6.463,0,0,0-2.169,1.858,5.061,5.061,0,0,0-.586,2.617,47.572,47.572,0,0,1,.21,5.061,7.9,7.9,0,0,1-1.388,3.926,5.624,5.624,0,0,1-2.494,1.923,4.453,4.453,0,0,1-1.966.311A2.819,2.819,0,0,1,139.09,70.124Z" transform="translate(-91.64 -29.075)" fill="#455a64"/>
    <path id="Path_7337" data-name="Path 7337" d="M208.552,42.762a5.48,5.48,0,0,0-.6-2.082,6.181,6.181,0,0,0-1.54-1.764A12.05,12.05,0,0,0,203.9,37.47c-.947-.441-1.88-.831-2.682-1.28a9.232,9.232,0,0,1-1.988-1.446,5.061,5.061,0,0,1-.99-1.323,1.243,1.243,0,0,1-.2-.571,8.061,8.061,0,0,0,1.374,1.7,9.846,9.846,0,0,0,1.974,1.3c.788.419,1.713.8,2.675,1.236a12.073,12.073,0,0,1,2.574,1.54,5.921,5.921,0,0,1,1.547,1.909,3.868,3.868,0,0,1,.434,1.6A1.446,1.446,0,0,1,208.552,42.762Z" transform="translate(-107.973 -29.272)" fill="#455a64"/>
    <path id="Path_7340" data-name="Path 7340" d="M166.881,66.08a1.077,1.077,0,0,1,.181.181,2.928,2.928,0,0,1,.39.622,4.446,4.446,0,0,1,.318,2.646,12.681,12.681,0,0,1-1.294,3.723,3.362,3.362,0,0,0-.318,2.169,9.912,9.912,0,0,0,1.041,2.2,3.918,3.918,0,0,1-.463,4.67,3.615,3.615,0,0,1-1.851,1.128,9.752,9.752,0,0,1-1.843.2,4.656,4.656,0,0,0-2.48.636,3.081,3.081,0,0,0-.672.672.491.491,0,0,1,.094-.239,1.865,1.865,0,0,1,.492-.549A4.468,4.468,0,0,1,163,83.373a10.121,10.121,0,0,0,1.786-.239,3.347,3.347,0,0,0,1.692-1.063,3.86,3.86,0,0,0,.9-2,3.752,3.752,0,0,0-.506-2.285,9.919,9.919,0,0,1-1.048-2.306,3.694,3.694,0,0,1,.361-2.357c.311-.723.651-1.294.86-1.909a10.121,10.121,0,0,0,.492-1.735,4.54,4.54,0,0,0-.2-2.545C167.083,66.369,166.852,66.1,166.881,66.08Z" transform="translate(-97.403 -38.479)" fill="#263238"/>
    <path id="Path_7341" data-name="Path 7341" d="M214.892,77.485a.969.969,0,0,1-.463.087,1.713,1.713,0,0,1-1.2-.6,2.386,2.386,0,0,1-.593-2.031,5.061,5.061,0,0,1,1.4-2.451,13.432,13.432,0,0,0,2.169-2.538,3.3,3.3,0,0,0,.412-1.735,5.711,5.711,0,0,0-.448-1.872,39.765,39.765,0,0,1-1.735-3.954,4.157,4.157,0,0,1,0-2.342,11.568,11.568,0,0,1,1.077-2.111,2.993,2.993,0,0,0,.463-2.111A3.94,3.94,0,0,0,214.863,54c-.5-.535-1.048-1.034-1.511-1.6a4.923,4.923,0,0,1-.983-1.923,8.675,8.675,0,0,1,.058-3.933c.253-1.2.6-2.284.817-3.289a7.446,7.446,0,0,0-.231-4.8A5.176,5.176,0,0,0,212,37l.1.065a1.829,1.829,0,0,1,.26.224,3.788,3.788,0,0,1,.781,1.157,5.834,5.834,0,0,1,.557,2.06,9.7,9.7,0,0,1-.217,2.812c-.21,1.019-.535,2.111-.774,3.3a8.437,8.437,0,0,0,0,3.781,4.453,4.453,0,0,0,.9,1.786c.441.542.983,1.027,1.5,1.576a4.338,4.338,0,0,1,1.222,1.974,3.427,3.427,0,0,1-.5,2.364,11.422,11.422,0,0,0-1.07,2.039,3.846,3.846,0,0,0,0,2.169,40.731,40.731,0,0,0,1.692,3.918,5.885,5.885,0,0,1,.455,2,3.615,3.615,0,0,1-.463,1.894,13.533,13.533,0,0,1-2.248,2.566,4.873,4.873,0,0,0-1.388,2.306,2.169,2.169,0,0,0,.5,1.894,1.684,1.684,0,0,0,1.092.629C214.733,77.485,214.892,77.441,214.892,77.485Z" transform="translate(-111.841 -30.422)" fill="#263238"/>
    <path id="Path_7342" data-name="Path 7342" d="M253.86,105.414a12.72,12.72,0,0,0-1.569-1.692,14.011,14.011,0,0,0-2.031-1.084,3.109,3.109,0,0,1,2.263.788A3.036,3.036,0,0,1,253.86,105.414Z" transform="translate(-122.441 -48.606)" fill="#d1734a"/>
    <path id="Path_7343" data-name="Path 7343" d="M239.8,158.709a10.959,10.959,0,0,1-1.048-3.275,10.541,10.541,0,0,1-.311-3.434,30.9,30.9,0,0,1,.68,3.354,28.709,28.709,0,0,1,.68,3.354Z" transform="translate(-119.158 -62.284)" fill="#d1734a"/>
    <path id="Path_7344" data-name="Path 7344" d="M171.221,144.926a6.846,6.846,0,0,0,4.656-5.906A6.388,6.388,0,1,0,163.2,137.7a6.846,6.846,0,0,0,3.412,6.767,10.214,10.214,0,0,0-9.326,6.593,14.415,14.415,0,0,0,8.321,5.653l3.9.4a14.387,14.387,0,0,0,9.4-3.933A10.055,10.055,0,0,0,171.221,144.926Z" transform="translate(-96.683 -56.605)" fill="#fff"/>
    <g id="Group_7826" data-name="Group 7826" transform="translate(40.676 82.48)" opacity="0.3">
      <path id="Path_7345" data-name="Path 7345" d="M134.752,145.3l3.21-3.311s-1.388,23.929-2.335,26.807-5.906,12.456-5.906,12.456L134,168.16Z" transform="translate(-129.72 -141.99)"/>
    </g>
    <path id="Path_7346" data-name="Path 7346" d="M141.569,136.38c.072.072-2.747,3.13-6.3,6.832s-6.506,6.651-6.586,6.579,2.754-3.13,6.311-6.839S141.5,136.307,141.569,136.38Z" transform="translate(-88.755 -57.955)" fill="#263238"/>
    <path id="Path_7347" data-name="Path 7347" d="M207.089,133.79a3.469,3.469,0,0,1-.036.723c-.043.477-.123,1.171-.239,2.031-.231,1.706-.622,4.063-1.157,6.637s-1.121,4.894-1.59,6.557c-.239.831-.441,1.5-.593,1.959a2.719,2.719,0,0,1-.275.723,3.615,3.615,0,0,1,.13-.723c.137-.549.289-1.207.477-1.981.4-1.677.947-3.991,1.482-6.564s.962-4.909,1.265-6.608c.137-.781.253-1.446.354-2.01A2.726,2.726,0,0,1,207.089,133.79Z" transform="translate(-109.402 -57.238)" fill="#263238"/>
    <g id="Group_7906" data-name="Group 7906" opacity="0">
      <path id="Path_7324" data-name="Path 7324" d="M202.66,57.959a1.092,1.092,0,0,1-1.186.947,1.041,1.041,0,0,1-.976-1.128,1.092,1.092,0,0,1,1.186-.94,1.041,1.041,0,0,1,.976,1.121Z" transform="translate(-108.653 -35.917)" fill="#263238"/>
      <path id="Path_7325" data-name="Path 7325" d="M204.511,56.516c-.152.123-.882-.593-2.039-.723s-2.089.311-2.169.152.116-.311.521-.528a3,3,0,0,1,1.778-.289,2.892,2.892,0,0,1,1.6.774C204.5,56.191,204.583,56.473,204.511,56.516Z" transform="translate(-108.595 -35.436)" fill="#263238"/>
      <path id="Path_7326" data-name="Path 7326" d="M186.24,55.986a1.084,1.084,0,0,1-1.186.94,1.034,1.034,0,0,1-.976-1.121,1.092,1.092,0,0,1,1.186-.947,1.048,1.048,0,0,1,.976,1.128Z" transform="translate(-104.104 -35.368)" fill="#263238"/>
      <path id="Path_7327" data-name="Path 7327" d="M187.731,54.8c-.152.123-.882-.593-2.039-.723s-2.089.3-2.169.145.116-.3.521-.521a3.007,3.007,0,0,1,1.778-.289,2.812,2.812,0,0,1,1.6.774C187.716,54.471,187.8,54.746,187.731,54.8Z" transform="translate(-103.946 -34.959)" fill="#263238"/>
      <path id="Path_7328" data-name="Path 7328" d="M193.52,64.276a7.736,7.736,0,0,1,1.93-.08c.3,0,.586,0,.665-.2a1.583,1.583,0,0,0-.08-.9c-.181-.723-.369-1.547-.564-2.371a38.32,38.32,0,0,1-1.149-6.159,38.315,38.315,0,0,1,1.641,6.051c.188.831.361,1.619.528,2.378a1.735,1.735,0,0,1,0,1.178.759.759,0,0,1-.542.369,2.017,2.017,0,0,1-.513,0A7.88,7.88,0,0,1,193.52,64.276Z" transform="translate(-106.72 -35.287)" fill="#263238"/>
      <path id="Path_7338" data-name="Path 7338" d="M188.192,50.95c-.072.087-.325,0-.723-.123a7.345,7.345,0,0,0-1.627-.188,7.048,7.048,0,0,0-1.634.174c-.412.094-.665.2-.723.123s.094-.361.535-.614a4.041,4.041,0,0,1,3.673,0C188.069,50.6,188.228,50.885,188.192,50.95Z" transform="translate(-103.937 -33.99)" fill="#263238"/>
      <path id="Path_7339" data-name="Path 7339" d="M203.3,53.067c-.036.2-.788.267-1.692.137s-1.6-.376-1.6-.614.788-.26,1.692-.13S203.326,52.865,203.3,53.067Z" transform="translate(-108.516 -34.683)" fill="#263238"/>
      <path id="Path_7349" data-name="Path 7349" d="M188.552,68.47c.188,0,0,1.272.969,2.306s2.313,1.092,2.3,1.265-.333.2-.9.137a3.123,3.123,0,0,1-1.923-.983,2.74,2.74,0,0,1-.723-1.923C188.284,68.737,188.465,68.448,188.552,68.47Z" transform="translate(-105.266 -39.14)" fill="#263238"/>
    </g>
    <path id="Path_7350" data-name="Path 7350" d="M164.142,39.737a7.229,7.229,0,0,0,1.54-3.557,3.839,3.839,0,0,0-3.326-3.824,4.056,4.056,0,0,0-4.193,2.964,4.338,4.338,0,0,0,2.169,4.721,4.583,4.583,0,0,0,5.176-.788" transform="translate(-96.898 -29.132)" fill="#263238"/>
    <path id="Path_7351" data-name="Path 7351" d="M167.668,37.38a3.8,3.8,0,0,1-.723,2.653,3.788,3.788,0,0,1-2.125,1.75,13.085,13.085,0,0,0,1.807-1.959,12.963,12.963,0,0,0,1.041-2.444Z" transform="translate(-98.769 -30.527)" fill="#455a64"/>
    <path id="Path_7352" data-name="Path 7352" d="M164.768,40.074a14.566,14.566,0,0,0-.477-4.02,14.523,14.523,0,0,0-1.9-3.615,4.035,4.035,0,0,1,.882.846,7.953,7.953,0,0,1,1.381,2.617,8.134,8.134,0,0,1,.361,2.935A2.892,2.892,0,0,1,164.768,40.074Z" transform="translate(-98.096 -29.158)" fill="#455a64"/>
  </g>
</svg>
