<svg id="Component_16_2" data-name="Component 16 – 2" xmlns="http://www.w3.org/2000/svg" width="45" height="45" viewBox="0 0 45 45">
  <circle id="Ellipse_5" data-name="Ellipse 5" cx="22.5" cy="22.5" r="22.5" fill="#ffe2e6"/>
  <g id="heisenberg" transform="translate(9 9)">
    <path id="Path_7964" data-name="Path 7964" d="M110.578,7.986H93.4l.856-4.247A4.647,4.647,0,0,1,98.8,0a4.735,4.735,0,0,1,3.185,1.252A4.735,4.735,0,0,1,105.174,0a4.647,4.647,0,0,1,4.548,3.74Z" transform="translate(-88.468)" fill="#5a5a5a"/>
    <g id="Group_7873" data-name="Group 7873" transform="translate(0)">
      <path id="Path_7965" data-name="Path 7965" d="M264.588,7.986H256V1.252A4.735,4.735,0,0,1,259.185,0a4.647,4.647,0,0,1,4.548,3.74Z" transform="translate(-242.478)" fill="#444"/>
      <path id="Path_7966" data-name="Path 7966" d="M27.044,125.546c0,.856-.481,2.108-2.477,3.264H2.477C.481,127.654,0,126.4,0,125.546,0,121.949,6.993,120,13.522,120S27.044,121.949,27.044,125.546Z" transform="translate(0 -113.662)" fill="#444"/>
    </g>
    <path id="Path_7967" data-name="Path 7967" d="M269.522,125.546c0,.856-.481,2.108-2.477,3.264H256V120C262.529,120,269.522,121.949,269.522,125.546Z" transform="translate(-242.478 -113.662)" fill="#292929"/>
    <path id="Path_7968" data-name="Path 7968" d="M392.585,246.338H391V240h1.585a3.169,3.169,0,1,1,0,6.338Z" transform="translate(-370.348 -227.323)" fill="#f6a96c"/>
    <path id="Path_7969" data-name="Path 7969" d="M35.754,246.338H34.169a3.169,3.169,0,1,1,0-6.338h1.585Z" transform="translate(-29.363 -227.323)" fill="#ffbd86"/>
    <path id="Path_7970" data-name="Path 7970" d="M108.43,181.87v6.845a8.868,8.868,0,0,1-4.754,7.854c-.3.158-.6-1.389-.919-1.278-.222.079-.444,1.849-.665,1.912a8.654,8.654,0,0,1-4.754,0c-.174-.047-.333-1.8-.491-1.849-.38-.143-.745,1.4-1.093,1.215A8.868,8.868,0,0,1,91,188.715V181.87l.475-.222a21.424,21.424,0,0,1,16.48,0Z" transform="translate(-86.193 -170.492)" fill="#fed2a4"/>
    <path id="Path_7971" data-name="Path 7971" d="M264.715,181.87v6.845a8.868,8.868,0,0,1-4.754,7.854c-.3.158-.6-1.389-.919-1.278-.222.079-.444,1.849-.665,1.912a9.062,9.062,0,0,1-2.377.333V180a22.193,22.193,0,0,1,8.24,1.648Z" transform="translate(-242.478 -170.492)" fill="#ffbd86"/>
    <path id="Path_7972" data-name="Path 7972" d="M188.923,390v5.477a8.072,8.072,0,0,1-1.585.634v-4.527h-4.754v4.527a8.07,8.07,0,0,1-1.585-.634V390Z" transform="translate(-171.44 -369.4)" fill="#5a5a5a"/>
    <rect id="Rectangle_2921" data-name="Rectangle 2921" width="5" height="2" transform="translate(11 14)" fill="#444"/>
    <rect id="Rectangle_2922" data-name="Rectangle 2922" width="3" height="2" transform="translate(13 14)" fill="#292929"/>
    <path id="Path_7973" data-name="Path 7973" d="M259.961,390v5.477a8.072,8.072,0,0,1-1.585.634v-4.527H256V390Z" transform="translate(-242.478 -369.4)" fill="#444"/>
    <path id="Path_7974" data-name="Path 7974" d="M94.961,274.754A3.966,3.966,0,0,1,91,270.792V270h7.923v.792A3.966,3.966,0,0,1,94.961,274.754Z" transform="translate(-86.193 -255.739)" fill="#5a5a5a"/>
    <path id="Path_7975" data-name="Path 7975" d="M274.961,274.754A3.966,3.966,0,0,1,271,270.792V270h7.923v.792A3.966,3.966,0,0,1,274.961,274.754Z" transform="translate(-256.686 -255.739)" fill="#444"/>
  </g>
</svg>
