<svg id="icons_2" xmlns="http://www.w3.org/2000/svg" width="46.44" height="46.44" viewBox="0 0 46.44 46.44">
  <g id="Group_8034" data-name="Group 8034">
    <g id="Group_8033" data-name="Group 8033">
      <path id="Path_8519" data-name="Path 8519" d="M23.22,0A23.22,23.22,0,1,0,46.44,23.22,23.22,23.22,0,0,0,23.22,0Zm0,44.5A21.285,21.285,0,1,1,44.5,23.22,21.285,21.285,0,0,1,23.22,44.5Z"/>
    </g>
  </g>
  <g id="Group_8036" data-name="Group 8036" transform="translate(11.61 11.376)">
    <g id="Group_8035" data-name="Group 8035">
      <path id="Path_8520" data-name="Path 8520" d="M146.171,132.426l-1.752-7.007-1.877.468,1.634,6.538h-9.131l1.634-6.538-1.877-.468-1.752,7.007H128v1.935h2.072l1.809,11.757a.968.968,0,0,0,.956.82h13.545a.968.968,0,0,0,.956-.82l1.809-11.757h2.072v-1.935ZM145.552,145H133.668l-1.637-10.642h15.159Z" transform="translate(-128 -125.419)" fill="#cc1a35"/>
    </g>
  </g>
  <g id="Group_8038" data-name="Group 8038" transform="translate(18.382 22.252)">
    <g id="Group_8037" data-name="Group 8037">
      <rect id="Rectangle_3024" data-name="Rectangle 3024" width="1.935" height="6.773" fill="#cc1a35"/>
    </g>
  </g>
  <g id="Group_8040" data-name="Group 8040" transform="translate(22.252 22.252)">
    <g id="Group_8039" data-name="Group 8039">
      <rect id="Rectangle_3025" data-name="Rectangle 3025" width="1.935" height="6.773" fill="#cc1a35"/>
    </g>
  </g>
  <g id="Group_8042" data-name="Group 8042" transform="translate(26.122 22.252)">
    <g id="Group_8041" data-name="Group 8041">
      <rect id="Rectangle_3026" data-name="Rectangle 3026" width="1.935" height="6.773" fill="#cc1a35"/>
    </g>
  </g>
</svg>
