<svg xmlns="http://www.w3.org/2000/svg" width="46" height="46" viewBox="0 0 46 46">
  <g id="icon_6" transform="translate(-556 -213)">
    <circle id="Ellipse_1207" data-name="Ellipse 1207" cx="23" cy="23" r="23" transform="translate(556 213)" fill="#7d5a91"/>
    <g id="bag_1_" data-name="bag (1)" transform="translate(568 225)">
      <g id="Group_7889" data-name="Group 7889">
        <g id="Group_7888" data-name="Group 7888">
          <path id="Path_8051" data-name="Path 8051" d="M15.165,6.711A1.91,1.91,0,0,0,13.3,5h-.756V4.376a4.376,4.376,0,0,0-8.752,0V5H3.036a1.91,1.91,0,0,0-1.864,1.71L.012,16.819A1.771,1.771,0,0,0,0,17.031v1.181a1.877,1.877,0,0,0,1.875,1.875H7.607a3.125,3.125,0,0,1-.063-.625v-7.5a1.877,1.877,0,0,1,1.875-1.875h6.116ZM11.294,5H5.043V4.376a3.126,3.126,0,1,1,6.251,0Z" fill="#fff"/>
        </g>
      </g>
      <g id="Group_7891" data-name="Group 7891" transform="translate(8.794 11.336)">
        <g id="Group_7890" data-name="Group 7890">
          <path id="Path_8052" data-name="Path 8052" d="M222.919,272H211.625a.625.625,0,0,0-.625.625v7.5A1.877,1.877,0,0,0,212.875,282h8.794a1.877,1.877,0,0,0,1.875-1.875v-7.5A.625.625,0,0,0,222.919,272ZM221,275.126h-.625v.625a3.126,3.126,0,1,1-6.251,0v-.625H213.5a.625.625,0,1,1,0-1.25H216a.625.625,0,0,1,0,1.25h-.625v.625a1.875,1.875,0,1,0,3.751,0v-.625H218.5a.625.625,0,1,1,0-1.25H221a.626.626,0,1,1,0,1.25Z" transform="translate(-211 -272)" fill="#fff"/>
        </g>
      </g>
    </g>
  </g>
</svg>
