<svg id="icons_1" xmlns="http://www.w3.org/2000/svg" width="50.23" height="50.236" viewBox="0 0 50.23 50.236">
  <path id="Path_8521" data-name="Path 8521" d="M22.818,21.1a1.051,1.051,0,0,1-.741-.306l-4.44-4.44a1.047,1.047,0,0,0-1.48,1.48,1.047,1.047,0,1,1-1.48,1.48,3.14,3.14,0,0,1,4.44-4.44l4.442,4.44a1.046,1.046,0,0,1-.741,1.786Z" transform="translate(15.042 15.257)" fill="#cc1a35"/>
  <path id="Path_8522" data-name="Path 8522" d="M17.536,18.9a1.051,1.051,0,0,1-.741-.306,3.15,3.15,0,0,1,0-4.44,3.22,3.22,0,0,1,4.442,0l2.96,2.96a1.047,1.047,0,0,1-1.48,1.48l-2.96-2.96a1.047,1.047,0,1,0-1.482,1.48,1.046,1.046,0,0,1-.739,1.786Z" transform="translate(17.362 14.499)" fill="#cc1a35"/>
  <path id="Path_8523" data-name="Path 8523" d="M27.073,36.513a9.313,9.313,0,0,1-2.307-.289l-7.3-1.861a1.037,1.037,0,0,1-.645-.486,3.759,3.759,0,0,1,.611-4.519,4.021,4.021,0,0,1,2.635-1.066l-8.928-8.928a3.142,3.142,0,0,1,0-4.44,3.22,3.22,0,0,1,4.442,0l8.88,8.88a1.047,1.047,0,1,1-1.48,1.48L14.1,16.4a1.075,1.075,0,0,0-1.48,0,1.047,1.047,0,0,0,0,1.48l11.1,11.1a1.047,1.047,0,0,1-1.07,1.733c-.892-.291-2.975-.649-3.741.117a1.591,1.591,0,0,0-.429,1.624l6.8,1.733a7.354,7.354,0,0,0,6.99-1.92l2.552-2.55a7.338,7.338,0,0,0,0-10.362l-4.442-4.44a1.071,1.071,0,0,0-1.48,0,1.041,1.041,0,0,0,0,1.48,1.047,1.047,0,0,1-1.48,1.48,3.136,3.136,0,0,1,0-4.442,3.209,3.209,0,0,1,4.44,0l4.44,4.44a9.433,9.433,0,0,1,0,13.322l-2.552,2.55a9.438,9.438,0,0,1-6.676,2.759Z" transform="translate(11.176 13.722)" fill="#cc1a35"/>
  <path id="Path_8524" data-name="Path 8524" d="M21.98,40.68H5.233A5.239,5.239,0,0,1,0,35.447V8.233A5.239,5.239,0,0,1,5.233,3H9.42a1.047,1.047,0,0,1,0,2.093H5.233a3.144,3.144,0,0,0-3.14,3.14V35.447a3.144,3.144,0,0,0,3.14,3.14H21.98a1.047,1.047,0,1,1,0,2.093Z" transform="translate(0 3.28)" fill="#212427"/>
  <path id="Path_8525" data-name="Path 8525" d="M19.7,12.56H7.14A3.144,3.144,0,0,1,4,9.42V5.233A1.047,1.047,0,0,1,5.047,4.187H8.291a5.235,5.235,0,0,1,10.257,0h3.245A1.047,1.047,0,0,1,22.84,5.233V9.42A3.144,3.144,0,0,1,19.7,12.56ZM6.093,6.28V9.42A1.048,1.048,0,0,0,7.14,10.467H19.7A1.048,1.048,0,0,0,20.747,9.42V6.28h-3.14A1.047,1.047,0,0,1,16.56,5.233a3.14,3.14,0,1,0-6.28,0A1.047,1.047,0,0,1,9.233,6.28Z" transform="translate(4.373)" fill="#212427"/>
  <path id="Path_8526" data-name="Path 8526" d="M21.42,21.84a1.047,1.047,0,0,1-1.047-1.047V8.233a3.144,3.144,0,0,0-3.14-3.14H13.047a1.047,1.047,0,0,1,0-2.093h4.187a5.239,5.239,0,0,1,5.233,5.233v12.56A1.047,1.047,0,0,1,21.42,21.84Z" transform="translate(13.12 3.28)" fill="#212427"/>
  <path id="Path_8527" data-name="Path 8527" d="M24.98,10.093H4.047A1.047,1.047,0,0,1,4.047,8H24.98a1.047,1.047,0,0,1,0,2.093Z" transform="translate(3.28 8.747)" fill="#212427"/>
  <path id="Path_8528" data-name="Path 8528" d="M24.98,13.093H4.047a1.047,1.047,0,0,1,0-2.093H24.98a1.047,1.047,0,0,1,0,2.093Z" transform="translate(3.28 12.027)"/>
  <path id="Path_8529" data-name="Path 8529" d="M14.513,16.093H4.047a1.047,1.047,0,0,1,0-2.093H14.513a1.047,1.047,0,0,1,0,2.093Z" transform="translate(3.28 15.307)" fill="#212427"/>
</svg>
