<svg id="icons_3" xmlns="http://www.w3.org/2000/svg" width="48.733" height="46.939" viewBox="0 0 48.733 46.939">
  <rect id="Rectangle_1095" data-name="Rectangle 1095" width="16.429" height="11.735" transform="translate(8.866 16.867) rotate(-45)" fill="#cc1a35"/>
  <g id="law" transform="translate(0 0)">
    <g id="Group_2178" data-name="Group 2178" transform="translate(3.65 0)">
      <g id="Group_2177" data-name="Group 2177" transform="translate(0 0)">
        <path id="Path_2692" data-name="Path 2692" d="M82.9,47.885,72.879,37.863a1.8,1.8,0,0,0-2.208-.269l-5.63-5.63A.739.739,0,0,0,64,33.009L69.587,38.6l-2.06,2.06L57.271,30.4l2.06-2.06L60.7,29.716a.739.739,0,1,0,1.045-1.045L60.376,27.3l3.571-3.571.283.283a1.859,1.859,0,0,0,2.629,0l1.316-1.316a1.859,1.859,0,0,0,0-2.628l-10.1-10.1a1.858,1.858,0,0,0-2.628,0L54.13,11.282a1.859,1.859,0,0,0,0,2.628l.283.283L43.12,25.485l-.283-.283a1.861,1.861,0,0,0-2.628,0l-1.316,1.316a1.859,1.859,0,0,0,0,2.628l10.1,10.1a1.859,1.859,0,0,0,2.628,0l1.316-1.316h0a1.861,1.861,0,0,0,0-2.628l-.283-.283,3.571-3.571,10.3,10.3a1.8,1.8,0,0,0,.269,2.208L76.812,53.975a1.807,1.807,0,0,0,2.555,0L82.9,50.44a1.807,1.807,0,0,0,0-2.555ZM55.174,12.327l1.317-1.316a.381.381,0,0,1,.538,0l10.1,10.1a.38.38,0,0,1,0,.538l-1.316,1.316a.39.39,0,0,1-.539,0l-10.1-10.1a.381.381,0,0,1,0-.539Zm-3.282,24.56L50.576,38.2a.39.39,0,0,1-.538,0l-10.1-10.1a.381.381,0,0,1,0-.538l1.316-1.316a.381.381,0,0,1,.538,0l10.1,10.1A.381.381,0,0,1,51.892,36.886Zm3.811-7h0L51.61,33.975,44.164,26.53,55.457,15.238,62.9,22.683l-4.093,4.093h0ZM81.856,49.395,78.322,52.93a.329.329,0,0,1-.465,0L67.835,42.907a.328.328,0,0,1,0-.465l.215-.215,3.32-3.32a.328.328,0,0,1,.465,0L81.856,48.93a.328.328,0,0,1,0,.465Z" transform="translate(-38.348 -9.421)" fill="#212427"/>
      </g>
    </g>
    <g id="Group_2180" data-name="Group 2180" transform="translate(0 34.921)">
      <g id="Group_2179" data-name="Group 2179" transform="translate(0 0)">
        <path id="Path_2693" data-name="Path 2693" d="M28.062,381.778H26.93v-3.894a1.577,1.577,0,0,0-1.575-1.575H12.618a.739.739,0,0,0,0,1.478H25.355a.1.1,0,0,1,.1.1v3.894H5.819v-3.894a.1.1,0,0,1,.1-.1H7.976a.739.739,0,0,0,0-1.478H5.917a1.577,1.577,0,0,0-1.575,1.575v3.894H3.21A3.213,3.213,0,0,0,0,384.988v2.1a1.238,1.238,0,0,0,1.236,1.236h28.8a1.238,1.238,0,0,0,1.236-1.236v-2.1A3.213,3.213,0,0,0,28.062,381.778Zm1.732,5.072H1.478v-1.862a1.734,1.734,0,0,1,1.732-1.732H28.062a1.734,1.734,0,0,1,1.732,1.732Z" transform="translate(0 -376.309)" fill="#212427"/>
      </g>
    </g>
  </g>
</svg>
