<svg xmlns="http://www.w3.org/2000/svg" width="46" height="46" viewBox="0 0 46 46">
  <g id="icon_5" transform="translate(-960 -213)">
    <circle id="Ellipse_1204" data-name="Ellipse 1204" cx="23" cy="23" r="23" transform="translate(960 213)" fill="#79aff8"/>
    <g id="review" transform="translate(972 225)">
      <path id="Path_8053" data-name="Path 8053" d="M318.553,3.4h-1.91V1.274a1.274,1.274,0,1,0-2.548,0V2.466a1.479,1.479,0,0,1-1.049,1.42l-1.074.33v6.611c0,.017,0,.034,0,.05a2,2,0,0,0,1.416.587h5.166a1.911,1.911,0,0,0,1.911-1.911V5.308A1.911,1.911,0,0,0,318.553,3.4Z" transform="translate(-298.723)" fill="#fff"/>
      <path id="Path_8054" data-name="Path 8054" d="M223.911,88.068h-1.274a.637.637,0,0,1-.637-.637V80.637a.637.637,0,0,1,.637-.637h1.274a.637.637,0,0,1,.637.637v6.794A.637.637,0,0,1,223.911,88.068Z" transform="translate(-212.574 -76.603)" fill="#fff"/>
      <path id="Path_8055" data-name="Path 8055" d="M14.663,182.223a3.252,3.252,0,0,1-1.918-.62,1.906,1.906,0,0,1-1.408.62H10.063a1.911,1.911,0,0,1-1.911-1.911V177H.637a.637.637,0,0,0-.637.637v12.931a.657.657,0,0,0,.3.559.637.637,0,0,0,.693-.009l2.387-1.592H16.772a.637.637,0,0,0,.637-.637v-6.666ZM3.185,180.185H6.794a.637.637,0,1,1,0,1.274H3.185a.637.637,0,1,1,0-1.274Zm11.04,7.006H3.185a.637.637,0,1,1,0-1.274h11.04a.637.637,0,1,1,0,1.274Zm0-2.866H3.185a.637.637,0,1,1,0-1.274h11.04a.637.637,0,1,1,0,1.274Z" transform="translate(0 -169.484)" fill="#fff"/>
    </g>
  </g>
</svg>
