<svg xmlns="http://www.w3.org/2000/svg" width="46" height="46" viewBox="0 0 46 46">
  <g id="icon_7" transform="translate(-354 -213)">
    <circle id="Ellipse_1206" data-name="Ellipse 1206" cx="23" cy="23" r="23" transform="translate(354 213)" fill="#c38798"/>
    <g id="sold" transform="translate(365 225)">
      <path id="Path_8048" data-name="Path 8048" d="M311.5,255.289H311v2.542h.5c.309,0,.492-.187.492-.562v-1.432C311.995,255.462,311.812,255.289,311.5,255.289Zm0,0" transform="translate(-293.811 -241.179)" fill="#fff"/>
      <path id="Path_8049" data-name="Path 8049" d="M183.495,255.211c-.309,0-.495.171-.495.553v1.465c0,.382.185.553.495.553s.5-.171.5-.553v-1.465C183.995,255.382,183.8,255.211,183.495,255.211Zm0,0" transform="translate(-172.885 -241.105)" fill="#fff"/>
      <path id="Path_8050" data-name="Path 8050" d="M22.026,9.467h-.832L14.027,2.762a1.88,1.88,0,0,0,.206-.856,1.907,1.907,0,0,0-3.814,0,1.87,1.87,0,0,0,.206.853L3.457,9.467H2.625A2.636,2.636,0,0,0,0,12.079v6.688a2.613,2.613,0,0,0,2.625,2.584h19.4a2.565,2.565,0,0,0,2.57-2.584V12.079A2.589,2.589,0,0,0,22.026,9.467ZM6.931,17.45c-.724,0-1.332-.354-1.332-.719,0-.188.166-.464.376-.464.26,0,.426.409.94.409.254,0,.536-.1.536-.365,0-.669-1.752-.553-1.752-1.846,0-.829.724-1.144,1.415-1.144.293,0,1.1.055,1.1.486,0,.149-.1.453-.343.453-.2,0-.3-.21-.757-.21-.392,0-.553.16-.553.332,0,.553,1.752.448,1.752,1.841A1.221,1.221,0,0,1,6.931,17.45Zm5.008-1.327a1.2,1.2,0,0,1-1.357,1.3,1.2,1.2,0,0,1-1.351-1.3V14.659a1.2,1.2,0,0,1,1.351-1.3,1.2,1.2,0,0,1,1.357,1.3Zm3.25,1.248H13.442c-.188,0-.4-.065-.4-.242V13.614c0-.182.227-.26.442-.26s.442.078.442.26v3.038h1.26c.166,0,.249.171.249.359S15.354,17.371,15.189,17.371Zm3.88-1.281c0,.951-.614,1.281-1.376,1.281h-.978c-.226,0-.354-.1-.354-.236V13.614c0-.138.127-.278.354-.278h.978a1.227,1.227,0,0,1,1.376,1.322ZM4.589,9.467l6.519-6.1a1.888,1.888,0,0,0,2.435,0l6.519,6.1Zm0,0" transform="translate(0 0)" fill="#fff"/>
    </g>
  </g>
</svg>
